<?xml version="1.0" encoding="UTF-8" standalone="no"?>
<!-- Created with Inkscape (http://www.inkscape.org/) -->

<svg
   width="32"
   height="32"
   viewBox="0 0 8.4666667 8.4666667"
   version="1.1"
   id="svg5"
   inkscape:version="1.2.1 (9c6d41e410, 2022-07-14)"
   sodipodi:docname="logo.svg"
   inkscape:export-filename="logo-32.png"
   inkscape:export-xdpi="96"
   inkscape:export-ydpi="96"
   xmlns:inkscape="http://www.inkscape.org/namespaces/inkscape"
   xmlns:sodipodi="http://sodipodi.sourceforge.net/DTD/sodipodi-0.dtd"
   xmlns="http://www.w3.org/2000/svg"
   xmlns:svg="http://www.w3.org/2000/svg">
  <sodipodi:namedview
     id="namedview7"
     pagecolor="#505050"
     bordercolor="#eeeeee"
     borderopacity="1"
     inkscape:showpageshadow="0"
     inkscape:pageopacity="0"
     inkscape:pagecheckerboard="0"
     inkscape:deskcolor="#505050"
     inkscape:document-units="mm"
     showgrid="true"
     showguides="false"
     inkscape:zoom="13.657522"
     inkscape:cx="16.840536"
     inkscape:cy="24.455387"
     inkscape:window-width="1920"
     inkscape:window-height="1017"
     inkscape:window-x="1426"
     inkscape:window-y="1432"
     inkscape:window-maximized="1"
     inkscape:current-layer="rect2121">
    <inkscape:grid
       type="xygrid"
       id="grid1775"
       empspacing="4" />
  </sodipodi:namedview>
  <defs
     id="defs2">
    <rect
       x="10.61686"
       y="9.3721245"
       width="17.426294"
       height="18.963908"
       id="rect3349" />
    <rect
       x="10.61686"
       y="9.3721247"
       width="17.426294"
       height="18.963907"
       id="rect3349-9" />
  </defs>
  <g
     inkscape:label="Calque 1"
     inkscape:groupmode="layer"
     id="layer1">
    <g
       id="rect2121">
      <path
         id="rect4972-0"
         style="fill:#e0effc;fill-opacity:1;stroke-width:1.05833;stroke-linecap:round;stroke-linejoin:round;stroke-miterlimit:2;paint-order:stroke fill markers;stop-color:#000000"
         d="M 0.62668726,5.0401878 4.9518251,0.50906936 5.708192,2.8057631 7.8717864,3.448704 3.5721714,7.7243359 Z"
         sodipodi:nodetypes="cccccc" />
      <path
         id="path3420"
         style="color:#000000;fill:#9e0000;stroke-linejoin:round;stroke-miterlimit:2;-inkscape-stroke:none;paint-order:stroke fill markers;fill-opacity:1"
         d="m 7.6738514,0.2635498 c 0.292239,2.832e-5 0.5291384,0.23692772 0.5291667,0.52916667 V 3.4395833 C 8.2027178,3.58032 8.1463721,3.7151407 8.0464385,3.8142375 L 3.8141387,8.047054 c -0.2065957,0.2062267 -0.5411623,0.2062267 -0.747758,0 L 0.41951387,5.4084554 c -0.2079521,-0.2068895 -0.2079521,-0.5434523 0,-0.7503418 L 2.9638049,2.1107164 4.6523304,0.42012939 C 4.7514272,0.32019584 4.8862479,0.2638501 5.0269846,0.2635498 Z M 6.628954,1.0583333 C 6.1905615,1.0547939 5.8286711,1.4074288 5.8207346,1.8458822 5.8127718,2.2842754 6.16168,2.6424385 6.6000152,2.6458333 7.0384077,2.6493727 7.400298,2.2967379 7.4082346,1.8582845 7.4161975,1.4198913 7.0672892,1.0617281 6.628954,1.0583333 Z M 3.447236,2.2215698 3.1671498,2.968811 C 3.570489,3.0749529 3.9313043,3.2489216 4.2709584,3.5036621 L 1.8468169,5.9278035 2.5346302,6.6156169 4.9587717,4.1914754 C 5.2092665,4.5268838 5.3873693,4.8918332 5.4977569,5.2994181 L 6.2449981,5.0193319 C 6.0794167,4.3612521 5.7144147,3.7497755 5.2176706,3.2530314 4.7166809,2.7520417 4.1010702,2.3829056 3.447236,2.2215698 Z"
         sodipodi:nodetypes="cccccccccccccccccccccccccsc" />
    </g>
  </g>
  <g
     inkscape:groupmode="layer"
     id="layer2"
     inkscape:label="Original"
     style="display:none">
    <path
       id="rect2121-7"
       style="font-variation-settings:normal;fill:#800000;fill-opacity:1;stroke:#800000;stroke-width:1.05833;stroke-linecap:butt;stroke-linejoin:round;stroke-miterlimit:2;stroke-dasharray:none;stroke-dashoffset:0;stroke-opacity:1;paint-order:stroke fill markers;stop-color:#000000"
       d="m 1.0161385,3.0309115 2.6458387,8.1e-6 4.2333566,4.238923 L 5.2494772,9.9100863 1.0161439,5.6767529 Z"
       sodipodi:nodetypes="cccccc" />
    <ellipse
       style="fill:#2c2c2c;fill-opacity:1;stroke-width:0.264589;stroke-linecap:round;stroke-linejoin:round;stroke-miterlimit:2;paint-order:stroke fill markers;stop-color:#000000"
       id="path2124-9"
       cx="2.0000794"
       cy="4.1055665"
       rx="0.79364371"
       ry="0.79385632"
       transform="matrix(0.99996942,-0.00781882,0.01813607,0.99983552,0,0)" />
    <text
       xml:space="preserve"
       transform="matrix(0.4548949,-0.4548949,0.4548949,0.4548949,-5.1979772,9.1807088)"
       id="text3347-8"
       style="font-style:normal;font-variant:normal;font-weight:bold;font-stretch:normal;font-size:9.33333px;line-height:0%;font-family:'Montserrat Alternates';-inkscape-font-specification:'Montserrat Alternates Bold';text-decoration-color:#000000;white-space:pre;shape-inside:url(#rect3349-9);display:inline;fill:#2c2c2c;fill-opacity:1;stroke:none;stroke-width:1.64512;stroke-linecap:round;stroke-linejoin:round;stroke-miterlimit:2;stroke-dasharray:none;stroke-dashoffset:0;stroke-opacity:1;paint-order:stroke fill markers;stop-color:#000000"><tspan
         x="10.617188"
         y="12.117919"
         id="tspan5794">T</tspan></text>
  </g>
</svg>
